<svg width="3800" height="2539" viewBox="0 0 3800 2539" fill="none" xmlns="http://www.w3.org/2000/svg">
<path d="M1980.07 1419.86H1717.61V1427.91H1758.54V1504.33H1767.01V1427.91H1926.44V1504.33H1934.9V1427.91H1980.07V1419.86Z" fill="#8C5338"/>
<path d="M2077.43 1222.78H2009.7V1287.13H2041.1V1503.98H2049.57V1287.13H2077.43V1222.78Z" fill="#8C5338"/>
<path d="M1980.59 1395.8H1718.13V1403.84H1980.59V1395.8Z" fill="#8C5338"/>
<path d="M1980.59 1375.69H1718.13V1383.73H1980.59V1375.69Z" fill="#8C5338"/>
<path d="M1980.59 1355.58H1718.13V1363.62H1980.59V1355.58Z" fill="#8C5338"/>
<path d="M2653.15 1527.52H2644.68C2644.68 1146.05 2318.05 835.7 1916.57 835.7C1515.09 835.7 1188.46 1146.05 1188.46 1527.52H1179.99C1179.99 1141.61 1510.42 827.655 1916.57 827.655C2322.72 827.655 2653.15 1141.61 2653.15 1527.52Z" fill="#8C5338"/>
<path d="M692.13 1315.26C1074.38 1315.26 1384.26 1020.83 1384.26 657.628C1384.26 294.43 1074.38 0 692.13 0C309.877 0 0 294.43 0 657.628C0 1020.83 309.877 1315.26 692.13 1315.26Z" fill="#FF8A00"/>
<path opacity="0.2" d="M1206.98 218.384C1271.54 361.873 1280.3 522.5 1231.69 671.56C1183.08 820.621 1080.27 948.401 941.632 1032.07C802.995 1115.74 637.564 1149.84 474.899 1128.28C312.235 1106.73 162.938 1030.92 53.686 914.398C93.1242 1002.06 152.151 1080.54 226.676 1144.37C301.201 1208.21 389.442 1255.9 485.287 1284.11C581.132 1312.33 682.288 1320.42 781.746 1307.8C881.205 1295.19 976.589 1262.18 1061.29 1211.07C1145.99 1159.95 1217.98 1091.95 1272.27 1011.77C1326.57 931.594 1361.87 841.16 1375.72 746.734C1389.58 652.309 1381.67 556.15 1352.53 464.919C1323.39 373.688 1273.73 289.567 1206.98 218.384Z" fill="black"/>
<path d="M694.031 657.629H695.931L730.157 2522.11H657.904L694.031 657.629Z" fill="#8C5338"/>
<path d="M820.055 1673.2L804.111 1644.42L689.7 1701.66L705.644 1730.43L820.055 1673.2Z" fill="#8C5338"/>
<path d="M3239.81 1468.9C3549.19 1468.9 3800 1230.59 3800 936.631C3800 642.669 3549.19 404.366 3239.81 404.366C2930.43 404.366 2679.62 642.669 2679.62 936.631C2679.62 1230.59 2930.43 1468.9 3239.81 1468.9Z" fill="#FF8A00"/>
<path opacity="0.2" d="M3656.51 581.12C3708.77 697.256 3715.86 827.263 3676.51 947.908C3637.17 1068.55 3553.96 1171.98 3441.75 1239.69C3329.54 1307.41 3195.65 1335.01 3063.99 1317.57C2932.34 1300.12 2811.5 1238.76 2723.07 1144.45C2754.99 1215.41 2802.77 1278.92 2863.09 1330.59C2923.4 1382.26 2994.82 1420.85 3072.4 1443.69C3149.97 1466.53 3231.85 1473.07 3312.34 1462.86C3392.84 1452.66 3470.04 1425.94 3538.6 1384.57C3607.15 1343.2 3665.42 1288.16 3709.36 1223.26C3753.31 1158.37 3781.88 1085.18 3793.09 1008.75C3804.31 932.327 3797.9 854.498 3774.32 780.658C3750.74 706.819 3710.54 638.734 3656.51 581.12Z" fill="black"/>
<path d="M3241.35 936.628H3242.89L3270.59 2445.69H3212.11L3241.35 936.628Z" fill="#8C5338"/>
<path d="M3343.35 1758.61L3330.45 1735.32L3237.84 1781.64L3250.75 1804.93L3343.35 1758.61Z" fill="#8C5338"/>
<path d="M1586.74 1394.97C1635.45 1394.97 1674.93 1357.46 1674.93 1311.18C1674.93 1264.91 1635.45 1227.39 1586.74 1227.39C1538.04 1227.39 1498.56 1264.91 1498.56 1311.18C1498.56 1357.46 1538.04 1394.97 1586.74 1394.97Z" fill="#FF8A00"/>
<path opacity="0.2" d="M1652.34 1255.21C1660.57 1273.5 1661.68 1293.96 1655.49 1312.96C1649.3 1331.95 1636.2 1348.23 1618.53 1358.89C1600.87 1369.55 1579.79 1373.9 1559.06 1371.15C1538.34 1368.4 1519.32 1358.74 1505.4 1343.9C1510.42 1355.07 1517.94 1365.06 1527.44 1373.2C1536.93 1381.33 1548.18 1387.41 1560.39 1391C1572.6 1394.6 1585.49 1395.63 1598.16 1394.02C1610.83 1392.41 1622.99 1388.21 1633.78 1381.7C1644.57 1375.18 1653.74 1366.52 1660.66 1356.3C1667.58 1346.09 1672.08 1334.57 1673.84 1322.53C1675.61 1310.5 1674.6 1298.25 1670.89 1286.63C1667.17 1275 1660.85 1264.28 1652.34 1255.21Z" fill="black"/>
<path d="M1586.99 1311.18H1587.23L1591.59 1548.74H1582.38L1586.99 1311.18Z" fill="#8C5338"/>
<path d="M1603.04 1440.58L1601.01 1436.91L1586.43 1444.21L1588.46 1447.87L1603.04 1440.58Z" fill="#8C5338"/>
<path d="M2401.64 1255.63C2526.32 1255.63 2627.4 1159.59 2627.4 1041.12C2627.4 922.647 2526.32 826.607 2401.64 826.607C2276.95 826.607 2175.87 922.647 2175.87 1041.12C2175.87 1159.59 2276.95 1255.63 2401.64 1255.63Z" fill="#FF8A00"/>
<path opacity="0.2" d="M2569.57 897.841C2590.63 944.646 2593.49 997.041 2577.63 1045.66C2561.78 1094.29 2528.24 1135.97 2483.02 1163.26C2437.8 1190.55 2383.84 1201.67 2330.78 1194.64C2277.72 1187.61 2229.02 1162.88 2193.38 1124.87C2206.25 1153.47 2225.5 1179.07 2249.81 1199.89C2274.12 1220.71 2302.9 1236.27 2334.17 1245.47C2365.43 1254.68 2398.42 1257.31 2430.87 1253.2C2463.31 1249.09 2494.42 1238.32 2522.05 1221.64C2549.68 1204.97 2573.16 1182.79 2590.87 1156.64C2608.58 1130.48 2620.1 1100.98 2624.62 1070.18C2629.14 1039.38 2626.56 1008.02 2617.05 978.258C2607.55 948.5 2591.35 921.06 2569.57 897.841Z" fill="black"/>
<path d="M2402.26 1041.12H2402.87L2414.04 1649.3H2390.47L2402.26 1041.12Z" fill="#8C5338"/>
<path d="M2443.36 1372.39L2438.16 1363L2400.84 1381.67L2406.04 1391.06L2443.36 1372.39Z" fill="#8C5338"/>
<path d="M847.289 2429.29C847.289 2429.29 850.212 2371.09 910.139 2377.86L847.289 2429.29Z" fill="#8C5338"/>
<path d="M830.356 2373.91C846.921 2373.91 860.35 2361.15 860.35 2345.41C860.35 2329.67 846.921 2316.91 830.356 2316.91C813.791 2316.91 800.363 2329.67 800.363 2345.41C800.363 2361.15 813.791 2373.91 830.356 2373.91Z" fill="#FF8A00"/>
<path d="M833.941 2393.4H825.475V2449.71H833.941V2393.4Z" fill="#8C5338"/>
<path d="M1058.95 2296.56C1058.95 2296.56 1061.87 2238.36 1121.8 2245.13L1058.95 2296.56Z" fill="#8C5338"/>
<path d="M1042.02 2241.18C1058.58 2241.18 1072.01 2228.42 1072.01 2212.68C1072.01 2196.94 1058.58 2184.18 1042.02 2184.18C1025.45 2184.18 1012.02 2196.94 1012.02 2212.68C1012.02 2228.42 1025.45 2241.18 1042.02 2241.18Z" fill="#FF8A00"/>
<path d="M1045.6 2260.67H1037.14V2316.98H1045.6V2260.67Z" fill="#8C5338"/>
<path d="M1696.97 1846.25C1696.97 1846.25 1699.3 1800.03 1746.89 1805.4L1696.97 1846.25Z" fill="#8C5338"/>
<path d="M1683.53 1802.27C1696.68 1802.27 1707.35 1792.13 1707.35 1779.63C1707.35 1767.13 1696.68 1757 1683.53 1757C1670.37 1757 1659.7 1767.13 1659.7 1779.63C1659.7 1792.13 1670.37 1802.27 1683.53 1802.27Z" fill="#FF8A00"/>
<path d="M1686.37 1817.75H1679.65V1862.47H1686.37V1817.75Z" fill="#8C5338"/>
<path d="M2628.28 1701.46C2628.28 1701.46 2630.6 1655.23 2678.2 1660.61L2628.28 1701.46Z" fill="#8C5338"/>
<path d="M2614.83 1657.47C2627.99 1657.47 2638.65 1647.33 2638.65 1634.83C2638.65 1622.33 2627.99 1612.2 2614.83 1612.2C2601.68 1612.2 2591.01 1622.33 2591.01 1634.83C2591.01 1647.33 2601.68 1657.47 2614.83 1657.47Z" fill="#FF8A00"/>
<path d="M2617.68 1672.95H2610.96V1717.67H2617.68V1672.95Z" fill="#8C5338"/>
<path d="M1739.31 1966.92C1739.31 1966.92 1741.63 1920.7 1789.23 1926.07L1739.31 1966.92Z" fill="#8C5338"/>
<path d="M1725.86 1922.93C1739.01 1922.93 1749.68 1912.8 1749.68 1900.3C1749.68 1887.8 1739.01 1877.66 1725.86 1877.66C1712.7 1877.66 1702.04 1887.8 1702.04 1900.3C1702.04 1912.8 1712.7 1922.93 1725.86 1922.93Z" fill="#FF8A00"/>
<path d="M1728.71 1938.41H1721.98V1983.14H1728.71V1938.41Z" fill="#8C5338"/>
<path d="M1637.71 2055.41C1637.71 2055.41 1640.03 2009.19 1687.63 2014.56L1637.71 2055.41Z" fill="#8C5338"/>
<path d="M1624.26 2011.42C1637.42 2011.42 1648.08 2001.29 1648.08 1988.79C1648.08 1976.29 1637.42 1966.15 1624.26 1966.15C1611.1 1966.15 1600.44 1976.29 1600.44 1988.79C1600.44 2001.29 1611.1 2011.42 1624.26 2011.42Z" fill="#FF8A00"/>
<path d="M1627.11 2026.9H1620.38V2071.63H1627.11V2026.9Z" fill="#8C5338"/>
<path d="M2772.21 1777.88C2772.21 1777.88 2774.53 1731.65 2822.13 1737.03L2772.21 1777.88Z" fill="#8C5338"/>
<path d="M2758.76 1733.89C2771.92 1733.89 2782.58 1723.76 2782.58 1711.26C2782.58 1698.76 2771.92 1688.62 2758.76 1688.62C2745.6 1688.62 2734.94 1698.76 2734.94 1711.26C2734.94 1723.76 2745.6 1733.89 2758.76 1733.89Z" fill="#FF8A00"/>
<path d="M2761.61 1749.37H2754.88V1794.1H2761.61V1749.37Z" fill="#8C5338"/>
<path d="M1400.65 1878.43C1400.65 1878.43 1402.97 1832.21 1450.57 1837.58L1400.65 1878.43Z" fill="#8C5338"/>
<path d="M1387.2 1834.44C1400.36 1834.44 1411.02 1824.31 1411.02 1811.81C1411.02 1799.31 1400.36 1789.18 1387.2 1789.18C1374.04 1789.18 1363.38 1799.31 1363.38 1811.81C1363.38 1824.31 1374.04 1834.44 1387.2 1834.44Z" fill="#FF8A00"/>
<path d="M1390.05 1849.92H1383.33V1894.65H1390.05V1849.92Z" fill="#8C5338"/>
<path d="M2501.29 1649.17C2501.29 1649.17 2503.61 1602.94 2551.2 1608.32L2501.29 1649.17Z" fill="#8C5338"/>
<path d="M2487.84 1605.18C2500.99 1605.18 2511.66 1595.05 2511.66 1582.55C2511.66 1570.05 2500.99 1559.91 2487.84 1559.91C2474.68 1559.91 2464.01 1570.05 2464.01 1582.55C2464.01 1595.05 2474.68 1605.18 2487.84 1605.18Z" fill="#FF8A00"/>
<path d="M2490.68 1620.66H2483.96V1665.38H2490.68V1620.66Z" fill="#8C5338"/>
<path d="M479 2441.36C479 2441.36 481.923 2383.16 541.85 2389.93L479 2441.36Z" fill="#8C5338"/>
<path d="M462.067 2385.98C478.631 2385.98 492.06 2373.22 492.06 2357.48C492.06 2341.74 478.631 2328.98 462.067 2328.98C445.502 2328.98 432.073 2341.74 432.073 2357.48C432.073 2373.22 445.502 2385.98 462.067 2385.98Z" fill="#FF8A00"/>
<path d="M465.653 2405.47H457.187V2461.78H465.653V2405.47Z" fill="#8C5338"/>
<path d="M3395.68 2425.27C3395.68 2425.27 3398.6 2367.07 3458.53 2373.84L3395.68 2425.27Z" fill="#8C5338"/>
<path d="M3378.75 2369.89C3395.31 2369.89 3408.74 2357.13 3408.74 2341.39C3408.74 2325.65 3395.31 2312.89 3378.75 2312.89C3362.18 2312.89 3348.75 2325.65 3348.75 2341.39C3348.75 2357.13 3362.18 2369.89 3378.75 2369.89Z" fill="#FF8A00"/>
<path d="M3382.33 2389.38H3373.87V2445.69H3382.33V2389.38Z" fill="#8C5338"/>
<path d="M3150.15 2288.52C3150.15 2288.52 3153.08 2230.32 3213.01 2237.08L3150.15 2288.52Z" fill="#8C5338"/>
<path d="M3133.22 2233.13C3149.79 2233.13 3163.21 2220.37 3163.21 2204.63C3163.21 2188.9 3149.79 2176.14 3133.22 2176.14C3116.66 2176.14 3103.23 2188.9 3103.23 2204.63C3103.23 2220.37 3116.66 2233.13 3133.22 2233.13Z" fill="#FF8A00"/>
<path d="M3136.81 2252.63H3128.34V2308.94H3136.81V2252.63Z" fill="#8C5338"/>
<path d="M3116.29 2493.65C3116.29 2493.65 3119.21 2435.45 3179.14 2442.21L3116.29 2493.65Z" fill="#8C5338"/>
<path d="M3099.36 2438.26C3115.92 2438.26 3129.35 2425.5 3129.35 2409.76C3129.35 2394.03 3115.92 2381.27 3099.36 2381.27C3082.79 2381.27 3069.36 2394.03 3069.36 2409.76C3069.36 2425.5 3082.79 2438.26 3099.36 2438.26Z" fill="#FF8A00"/>
<path d="M3102.94 2457.76H3094.48V2514.07H3102.94V2457.76Z" fill="#8C5338"/>
<path d="M527.73 2537.08C527.73 2537.08 1861.19 2203.24 1848.49 1861.36C1825.21 1766.84 1664.35 1742.7 1664.35 1742.7C1664.35 1742.7 1283.36 1694.44 1490.78 1577.79C1698.21 1461.15 2265.46 1489.3 2265.46 1489.3C2265.46 1489.3 1681.28 1577.79 1939.5 1626.06C2146.93 1638.13 2413.62 1690.41 2413.62 1690.41C2413.62 1690.41 2955.47 1799.01 3031.67 2064.48C3107.87 2329.94 3044.37 2535.07 3044.37 2535.07L527.73 2537.08Z" fill="#DCDCDC"/>
<path d="M1980.1 2538.39L1975.11 2531.76C1982.16 2526.96 1989.11 2522.2 1995.95 2517.46L2001 2524.05C1994.13 2528.8 1987.16 2533.58 1980.1 2538.39Z" fill="white"/>
<path d="M2075.58 1509.11L2074.26 1501.06C2082.6 1499.83 2091.09 1498.59 2099.72 1497.34L2101.01 1505.4C2092.38 1506.65 2083.9 1507.89 2075.58 1509.11Z" fill="white"/>
<path d="M2265.45 681.132L2304.42 651.518C2274.14 648.344 2261.7 664.032 2256.61 676.449C2232.96 667.118 2207.21 679.347 2207.21 679.347L2285.19 706.242C2281.25 696.259 2274.4 687.549 2265.45 681.132Z" fill="#8C5338"/>
<path d="M1541.57 910.398L1580.54 880.783C1550.26 877.61 1537.82 893.298 1532.73 905.714C1509.08 896.383 1483.33 908.612 1483.33 908.612L1561.31 935.507C1557.37 925.525 1550.53 916.815 1541.57 910.398Z" fill="#8C5338"/>
<path d="M1732.06 435.779L1771.03 406.164C1740.76 402.991 1728.32 418.678 1723.23 431.095C1699.58 421.764 1673.83 433.993 1673.83 433.993L1751.8 460.888C1747.87 450.906 1741.02 442.195 1732.06 435.779Z" fill="#8C5338"/>
<g opacity="0.5">
<path opacity="0.5" d="M1900.8 2290.08H1897.81V2308.21H1900.8V2290.08Z" fill="#FF8A00"/>
<path opacity="0.5" d="M1907.79 2300.74V2297.55H1890.82V2300.74H1907.79Z" fill="#FF8A00"/>
</g>
<path opacity="0.5" d="M1623.36 1249.61C1626.67 1249.61 1629.35 1246.74 1629.35 1243.21C1629.35 1239.68 1626.67 1236.81 1623.36 1236.81C1620.06 1236.81 1617.38 1239.68 1617.38 1243.21C1617.38 1246.74 1620.06 1249.61 1623.36 1249.61Z" fill="#F55F44"/>
<path d="M1555.03 1312.64L1599.98 1314.5L1602.22 1252.77L1557.27 1250.91L1555.03 1312.64Z" fill="#6C63FF"/>
<path d="M1760.03 1467.11C1760.03 1467.11 1822.28 1435.34 1821.28 1462.78C1820.29 1490.21 1758.54 1508.26 1758.54 1508.26L1760.03 1467.11Z" fill="#FFB9B9"/>
<path d="M1725.88 1699.26C1725.88 1699.26 1755.25 1776.04 1766.1 1831.44C1776.95 1886.85 1793.47 1963.1 1772.22 2017.18C1750.96 2071.25 1690.53 2230.18 1689.91 2247.33C1689.29 2264.48 1695.09 2281.89 1682.24 2281.36C1669.4 2280.83 1599.52 2257.33 1596.68 2246.9C1593.84 2236.48 1620.52 2210.11 1620.52 2210.11L1686.4 1989.58L1617.67 1845.9L1568.08 2060.24L1558.37 2327.75C1558.37 2327.75 1510.71 2312.04 1503.79 2325.49C1503.79 2325.49 1482.44 2293.69 1479.73 2279.84C1477.02 2265.99 1489.81 2002.04 1489.81 2002.04C1489.81 2002.04 1446.06 1701.41 1481.38 1702.87C1516.7 1704.33 1655.03 1613.89 1725.88 1699.26Z" fill="black"/>
<path d="M1682.74 2267.64C1682.74 2267.64 1715.32 2344.56 1718.4 2348.12C1721.49 2351.68 1742.72 2386.91 1726.67 2386.25C1710.61 2385.58 1672.71 2366.84 1644.81 2338.2C1616.91 2309.57 1580.13 2259.96 1583.46 2256.66C1586.8 2253.37 1609.65 2244.01 1609.65 2244.01L1682.74 2267.64Z" fill="black"/>
<path d="M1552.58 2310.34C1552.58 2310.34 1554.54 2344.77 1560.46 2358.75C1566.39 2372.74 1565.64 2393.31 1549.59 2392.65C1533.53 2391.98 1492.05 2383.4 1492.05 2383.4C1492.05 2383.4 1489.58 2362.69 1492.92 2359.39C1496.25 2356.09 1510.46 2318.9 1504.42 2308.34C1498.37 2297.79 1552.58 2310.34 1552.58 2310.34Z" fill="black"/>
<path d="M1528.83 1193.05C1528.83 1193.05 1494.6 1250.03 1481.26 1263.21C1467.92 1276.4 1505.45 1305.43 1505.45 1305.43L1572.63 1315.08C1572.63 1315.08 1571.78 1249.79 1575.24 1243.06C1578.7 1236.34 1528.83 1193.05 1528.83 1193.05Z" fill="#FFB9B9"/>
<path d="M1587.21 1267.6C1587.21 1267.6 1573.37 1294.51 1560.53 1293.97C1547.69 1293.44 1481.26 1263.21 1478.43 1252.79C1475.59 1242.37 1456.42 1327.44 1456.42 1327.44L1618.96 1633L1658.61 1603.73L1639.4 1424.33L1623.62 1327.5L1587.21 1267.6Z" fill="white"/>
<path d="M1472.43 1541.06C1478.92 1555.55 1482.96 1570.66 1482.4 1586.13C1482.38 1586.81 1482.35 1587.5 1482.3 1588.19C1480.76 1619.93 1469.81 1656.64 1465.88 1683.34C1463.03 1702.49 1463.85 1716.47 1474.34 1719.75C1499.77 1727.67 1470.63 1733.34 1569.04 1768.33C1667.44 1803.32 1684.62 1773.11 1684.87 1766.25C1685.11 1759.4 1670.93 1707.29 1674.26 1703.99C1677.6 1700.69 1720.93 1747.14 1734.02 1740.81C1747.11 1734.49 1735.51 1699.66 1735.51 1699.66C1735.51 1699.66 1706.02 1626.31 1706.65 1609.16C1707.27 1592.01 1661.97 1511.13 1661.97 1511.13L1631.16 1296.9C1631.16 1296.9 1619.32 1268.93 1603.39 1264.84C1587.46 1260.74 1574.25 1270.5 1574.25 1270.5L1600.9 1333.43L1629.02 1444.51L1624.32 1485.53C1624.32 1485.53 1591.62 1412.04 1570.14 1383.68C1548.66 1355.31 1502.87 1288.15 1502.87 1288.15C1502.87 1288.15 1492.18 1249.62 1500.25 1238.1C1508.32 1226.55 1466.58 1224.82 1448.78 1272.17C1439.35 1297.27 1424.04 1334.69 1414.45 1369.53C1405.9 1400.4 1401.86 1429.26 1410.33 1445.75C1423.27 1470.95 1455.83 1504.07 1472.43 1541.06Z" fill="#575A89"/>
<path opacity="0.1" d="M1410.33 1445.75C1423.27 1470.95 1455.83 1504.07 1472.43 1541.06C1476.77 1524.38 1482.06 1507.11 1482.06 1507.11C1482.06 1507.11 1502.34 1391.17 1442.34 1361.21C1432.39 1360.18 1422.45 1363.15 1414.45 1369.53C1405.9 1400.4 1401.86 1429.26 1410.33 1445.75Z" fill="black"/>
<path d="M1648.53 1438.45L1699.41 1454.29L1770.04 1457.22L1777.3 1522.78L1661.23 1531.71C1661.23 1531.71 1632.23 1444.64 1648.53 1438.45Z" fill="#575A89"/>
<path d="M1565.58 1658.89C1565.58 1658.89 1633.64 1670.95 1618.1 1692.82C1602.57 1714.7 1542.28 1691.7 1542.28 1691.7L1565.58 1658.89Z" fill="#FFB9B9"/>
<path opacity="0.1" d="M1482.3 1588.19C1480.76 1619.93 1469.81 1656.64 1465.88 1683.34C1487.56 1705.25 1508.18 1724.59 1515.95 1724.91C1532 1725.57 1557.81 1723.21 1567.32 1727.04C1576.83 1730.87 1582.4 1665.84 1582.4 1665.84C1582.4 1665.84 1576.73 1644.99 1551.42 1633.64C1534.33 1625.96 1501.58 1605.13 1482.3 1588.19Z" fill="black"/>
<path d="M1443.08 1340.63C1443.08 1340.63 1388.75 1331.51 1391.69 1427.81C1394.62 1524.1 1385.96 1585.57 1407.81 1603.65C1429.66 1621.73 1500.64 1703.67 1516.7 1704.33C1532.75 1705 1558.56 1702.63 1568.07 1706.46C1577.57 1710.29 1583.15 1645.26 1583.15 1645.26C1583.15 1645.26 1577.48 1624.41 1552.16 1613.06C1526.85 1601.71 1467.22 1561.46 1467.72 1547.74C1468.22 1534.02 1482.8 1486.54 1482.8 1486.54C1482.8 1486.54 1503.09 1370.59 1443.08 1340.63Z" fill="#575A89"/>
<path d="M1576.74 1277.41C1615.77 1277.41 1647.42 1243.61 1647.42 1201.91C1647.42 1160.2 1615.77 1126.4 1576.74 1126.4C1537.7 1126.4 1506.05 1160.2 1506.05 1201.91C1506.05 1243.61 1537.7 1277.41 1576.74 1277.41Z" fill="#FFB9B9"/>
<path d="M1624.33 1093.68C1626.04 1095.25 1628.08 1096.34 1630.27 1096.87C1631.38 1097.08 1632.51 1096.81 1633.43 1096.13C1634.35 1095.45 1634.98 1094.41 1635.19 1093.23C1636.81 1096.81 1638.63 1100.63 1641.93 1102.47C1645.23 1104.31 1650.34 1102.77 1650.82 1098.82C1651.3 1101.82 1652.54 1104.61 1654.4 1106.91C1656.45 1109 1660.17 1109.52 1661.95 1107.18C1660.51 1115.62 1661.4 1124.3 1660.95 1132.87C1660.49 1141.44 1658.35 1150.52 1652.29 1156.15C1643.46 1164.37 1630.17 1162.34 1618.54 1160.79C1616.79 1160.39 1614.96 1160.5 1613.25 1161.1C1608.9 1163.08 1609.1 1169.55 1609.04 1174.6C1608.69 1183.47 1605.4 1191.92 1599.77 1198.44C1594.14 1204.97 1586.52 1209.15 1578.28 1210.24C1573.66 1211 1568.95 1209.78 1565.19 1206.83C1561.89 1203.84 1560.2 1198.97 1556.42 1196.73C1550.27 1193.07 1542.8 1198.4 1538.31 1204.18C1533.81 1209.97 1529.37 1217.08 1522.41 1218.14C1513.19 1219.54 1506.17 1209.5 1502.73 1200.27C1497.98 1187.32 1495.7 1173.49 1496.03 1159.58C1496.37 1145.68 1499.3 1131.99 1504.67 1119.32C1523.91 1074.51 1589.64 1067.42 1624.33 1093.68Z" fill="#2F2E41"/>
<path d="M1834.27 1540.32C1833.49 1540.32 1832.71 1540.04 1832.09 1539.48C1827.26 1535.17 1822.67 1531.18 1818.35 1527.43C1793.98 1506.24 1777.65 1492.24 1777.65 1471.84C1777.65 1452.99 1790.71 1438.78 1807.73 1438.78C1821.15 1438.78 1829.76 1448.34 1834.27 1456.95C1838.79 1448.34 1847.4 1438.78 1860.82 1438.78C1877.84 1438.78 1890.9 1452.99 1890.9 1471.84C1890.9 1492.24 1874.57 1506.24 1850.2 1527.43C1845.88 1531.18 1841.28 1535.17 1836.46 1539.48C1835.83 1540.04 1835.05 1540.32 1834.27 1540.32Z" fill="#FD3018"/>
<path d="M1836.46 1539.48C1841.29 1535.17 1845.88 1531.18 1850.2 1527.43C1874.57 1506.24 1890.9 1492.24 1890.9 1471.84C1890.9 1452.99 1877.84 1438.78 1860.82 1438.78C1847.4 1438.78 1838.79 1448.34 1834.27 1456.95V1540.32C1835.05 1540.32 1835.83 1540.04 1836.46 1539.48Z" fill="#E61E14"/>
<path d="M2184.05 1733.25C2163.69 1733.25 2144.17 1745.78 2129.77 1768.08C2115.38 1790.37 2107.29 1820.62 2107.29 1852.15V2387.16H2158.46V1852.15C2158.46 1841.64 2161.16 1831.56 2165.96 1824.12C2170.75 1816.69 2177.26 1812.52 2184.05 1812.52C2190.83 1812.52 2197.34 1816.69 2202.14 1824.12C2206.94 1831.56 2209.63 1841.64 2209.63 1852.15V1891.78H2260.8V1852.15C2260.8 1820.62 2252.72 1790.37 2238.32 1768.08C2223.93 1745.78 2204.4 1733.25 2184.05 1733.25Z" fill="#8C5338"/>
<path d="M2158.46 2132.92V2387.16H2107.29V2042.69L2158.46 2132.92Z" fill="#804A32"/>
<path d="M2403.72 1449.98L2485.96 1635.28C2514.28 1699.09 2529.45 1774.71 2529.45 1852.15H2363.14V1753.07L2311.97 1653.99V1494.12C2311.97 1483.89 2313.27 1473.75 2315.8 1464.3C2318.33 1454.85 2322.03 1446.26 2326.7 1439.03C2331.37 1431.79 2336.92 1426.05 2343.02 1422.14C2349.12 1418.22 2355.66 1416.21 2362.27 1416.21C2370.43 1416.21 2378.46 1419.28 2385.69 1425.17C2392.91 1431.05 2399.09 1439.56 2403.72 1449.98Z" fill="#575A89"/>
<path d="M2334.69 2307.9L2324.76 2089.93L2363.14 1852.15H2529.45V2070.12L2623.44 2219.97L2567.82 2288.09L2452.69 2109.75V1971.04H2427.11L2401.52 2089.93V2307.9H2334.69Z" fill="black"/>
<path d="M2248.01 1554.92C2264.97 1554.92 2281.24 1544.48 2293.24 1525.9C2305.23 1507.32 2311.97 1482.11 2311.97 1455.84V1376.58C2311.97 1350.3 2305.23 1325.1 2293.24 1306.52C2281.24 1287.94 2264.97 1277.5 2248.01 1277.5C2212.68 1277.5 2196.84 1297.31 2184.05 1356.76L2165.48 1428.66C2164.7 1431.67 2164.41 1434.93 2164.64 1438.15C2164.86 1441.36 2165.59 1444.45 2166.76 1447.13C2167.93 1449.81 2169.51 1452.01 2171.36 1453.53C2173.21 1455.04 2175.27 1455.84 2177.36 1455.84H2184.05C2184.05 1482.11 2190.79 1507.32 2202.78 1525.9C2214.78 1544.48 2231.05 1554.92 2248.01 1554.92Z" fill="#FFB9B9"/>
<path d="M2311.97 1416.21C2311.97 1416.21 2260.8 1396.39 2260.8 1336.95H2203.24C2194.75 1336.95 2186.62 1331.73 2180.62 1322.44C2174.62 1313.15 2171.25 1300.55 2171.25 1287.41C2171.25 1274.27 2174.62 1261.67 2180.62 1252.38C2186.62 1243.09 2194.75 1237.87 2203.24 1237.87H2260.8C2274.37 1237.87 2287.39 1246.22 2296.98 1261.08C2306.58 1275.95 2311.97 1296.11 2311.97 1317.13V1416.21Z" fill="#BFBFBD"/>
<path d="M2401.52 2307.9V2387.16H2308.69C2302.77 2387.16 2297.1 2383.52 2292.92 2377.05C2288.74 2370.57 2286.39 2361.78 2286.39 2352.62C2286.39 2345.37 2287.86 2338.3 2290.6 2332.42C2293.33 2326.54 2297.2 2322.14 2301.64 2319.84L2324.76 2307.9H2401.52Z" fill="black"/>
<path d="M2567.82 2288.09L2547.54 2319.51C2545.16 2323.19 2543.28 2327.56 2541.99 2332.37C2540.71 2337.18 2540.04 2342.33 2540.04 2347.53C2540.04 2352.74 2540.71 2357.89 2541.99 2362.7C2543.28 2367.51 2545.16 2371.88 2547.54 2375.56C2552.34 2382.99 2558.84 2387.17 2565.63 2387.17H2570.02C2576.8 2387.17 2583.31 2382.99 2588.11 2375.56L2657.37 2268.27L2618.99 2208.83L2567.82 2288.09Z" fill="black"/>
<path d="M2222.42 1455.84H2184.05V1554.92C2184.05 1570.68 2188.09 1585.8 2195.29 1596.95C2202.48 1608.1 2212.25 1614.36 2222.42 1614.36C2232.6 1614.36 2242.36 1608.1 2249.56 1596.95C2256.76 1585.8 2260.8 1570.68 2260.8 1554.92V1515.29C2260.8 1499.52 2256.76 1484.4 2249.56 1473.25C2242.36 1462.1 2232.6 1455.84 2222.42 1455.84Z" fill="#BFBFBD"/>
<path d="M2222.42 1693.62H2311.97V1475.65C2311.97 1459.89 2316.02 1444.77 2323.21 1433.62C2330.41 1422.47 2340.17 1416.21 2350.35 1416.21C2360.53 1416.21 2370.29 1422.47 2377.49 1433.62C2384.68 1444.77 2388.73 1459.89 2388.73 1475.65V1713.44C2388.73 1734.46 2383.34 1754.62 2373.74 1769.49C2364.14 1784.35 2351.13 1792.7 2337.56 1792.7H2222.42V1693.62Z" fill="#494B69"/>
<path d="M2184.05 1693.62H2222.42V1792.7H2209.63L2196.84 1812.52H2145.67V1753.07C2145.67 1737.31 2149.71 1722.18 2156.91 1711.04C2164.11 1699.89 2173.87 1693.62 2184.05 1693.62Z" fill="#FFB9B9"/>
</svg>
