<svg width="512" height="512" viewBox="0 0 512 512" fill="none" xmlns="http://www.w3.org/2000/svg">
<path d="M256 481C252.47 481 248.954 479.77 246.127 477.294C224.301 458.207 203.544 440.512 184.018 423.871C73.817 329.96 0 267.909 0 177.514C0 93.988 59.037 31 136 31C196.659 31 235.595 73.378 256 111.537C276.405 73.378 315.341 31 376 31C452.963 31 512 93.988 512 177.514C512 267.91 438.183 329.96 327.982 423.871C308.456 440.512 287.699 458.207 265.873 477.294C263.046 479.77 259.53 481 256 481Z" fill="#FD3018"/>
<path d="M265.873 477.294C287.699 458.207 308.456 440.512 327.982 423.871C438.183 329.96 512 267.909 512 177.514C512 93.988 452.963 31 376 31C315.341 31 276.405 73.378 256 111.537V481C259.53 481 263.046 479.77 265.873 477.294Z" fill="#E61E14"/>
</svg>
